<?xml version="1.0" encoding="utf-8"?>
<!-- Generator: Adobe Illustrator 27.2.0, SVG Export Plug-In . SVG Version: 6.00 Build 0)  -->
<svg version="1.1" id="Layer_1" xmlns="http://www.w3.org/2000/svg" xmlns:xlink="http://www.w3.org/1999/xlink" x="0px" y="0px"
	 viewBox="0 0 295.05 381.72" style="enable-background:new 0 0 295.05 381.72;" xml:space="preserve">
<style type="text/css">
	.st0{fill:#FFFFFF;}
</style>
<g>
	<path class="st0" d="M33.55,82.74c0,0,16.68,3.49,16.68,56.26s0,98.17,0,98.17s-5.43,34.14,22.5,68.29c0,0,3.04,6.64,3.76-25.62
		c0.73-32.26,0-178.78,0-178.78s-0.49-17.71-19.16-17.71S33.55,82.74,33.55,82.74z"/>
	<path class="st0" d="M85.32,315.72c0,0-33.4,39.97-71.57,0s14.47-50.46,21.6-31.16c7.13,19.29,30.62,50.33,39.01,21.6L85.32,315.72
		z"/>
	<path class="st0" d="M101.01,293.82c0,0-3.35,13.05-15.69,21.9c0,0,15.92,11.79,40.11,13.6v-18.77
		C125.43,310.55,107.79,303.99,101.01,293.82z"/>
	<path class="st0" d="M146.73,83.1h-37.07c0,0-22.06-2.22-22.06,22.06s0,151.07,0,151.07s-1.9,18.07,13.42,37.58
		c0,0,7.53-5.7,10.13-46.11c2.6-40.41,0-142.36,0-142.36s3.34-30.03,12.98,0v204.28c0,0,17.42,12.98,44.12,0V83.1H146.73z"/>
	<path class="st0" d="M125.43,329.32c0,0,5.2,51.32-43.27,42.88v9.16h130.93v-8.44c0,0-49.67,8.92-45.33-43.4
		C167.76,329.52,148.2,331.77,125.43,329.32z"/>
	<path class="st0" d="M261.5,83.11c0,0-16.68,3.49-16.68,56.26s0,98.17,0,98.17s5.43,34.14-22.5,68.29c0,0-3.04,6.64-3.76-25.62
		s0-178.78,0-178.78s0.49-17.71,19.16-17.71S261.5,83.11,261.5,83.11z"/>
	<path class="st0" d="M209.74,316.08c0,0,33.4,39.97,71.57,0s-14.47-50.46-21.6-31.16c-7.13,19.29-30.62,50.33-39.01,21.6
		L209.74,316.08z"/>
	<path class="st0" d="M194.04,294.18c0,0,3.35,13.05,15.69,21.9c0,0-15.92,11.79-40.11,13.6v-18.77
		C169.62,310.91,187.26,304.36,194.04,294.18z"/>
	<path class="st0" d="M148.33,83.46h37.07c0,0,22.06-2.22,22.06,22.06s0,151.07,0,151.07s1.9,18.07-13.42,37.58
		c0,0-7.53-5.7-10.13-46.11c-2.6-40.41,0-142.36,0-142.36s-3.34-30.03-12.98,0v204.28c0,0-17.42,12.98-44.12,0V83.46H148.33z"/>
	<path class="st0" d="M169.62,329.68c0,0-5.2,51.32,43.27,42.88v9.16H81.96v-8.44c0,0,49.67,8.92,45.33-43.4
		C127.29,329.88,146.85,332.13,169.62,329.68z"/>
	<circle class="st0" cx="146.3" cy="29.94" r="29.94"/>
</g>
</svg>
